<svg width="42" height="42" viewBox="0 0 42 42" fill="none" xmlns="http://www.w3.org/2000/svg">
<path fill-rule="evenodd" clip-rule="evenodd" d="M21 3.5C11.3341 3.5 3.5 11.3341 3.5 21C3.5 26.0406 5.62777 30.5819 9.04587 33.7667L9.04914 33.7697C12.1768 36.7048 16.3804 38.5 21 38.5C25.8423 38.5 30.2268 36.5354 33.3949 33.3498L33.3957 33.349C36.5532 30.1798 38.5 25.8183 38.5 21C38.5 11.3341 30.6659 3.5 21 3.5ZM1 21C1 9.95339 9.95339 1 21 1C32.0466 1 41 9.95339 41 21C41 26.5067 38.7718 31.4952 35.1668 35.1135C31.5474 38.7524 26.5323 41 21 41C15.7203 41 10.912 38.9457 7.33972 35.594C3.43394 31.9539 1 26.7585 1 21Z" fill="white" stroke="white" stroke-width="0.5" stroke-miterlimit="10" stroke-linecap="round" stroke-linejoin="round"/>
<path fill-rule="evenodd" clip-rule="evenodd" d="M9.64729 34.3067C12.7031 36.9223 16.6683 38.5 20.9992 38.5C25.552 38.5 29.7002 36.7632 32.8132 33.9078C30.905 29.4436 26.4717 26.3125 21.3117 26.3125C15.9959 26.3125 11.4522 29.6294 9.64729 34.3067ZM7.00029 34.3069C8.90939 28.225 14.5945 23.8125 21.3117 23.8125C27.8459 23.8125 33.4005 27.9939 35.4589 33.8145C35.6191 34.2674 35.5055 34.7721 35.1667 35.1127C31.5473 38.7521 26.5319 41 20.9992 41C15.7188 41 10.9099 38.9452 7.33753 35.5927C6.98763 35.2644 6.85658 34.7647 7.00029 34.3069Z" fill="white" stroke="white" stroke-width="0.5" stroke-miterlimit="10" stroke-linecap="round" stroke-linejoin="round"/>
<path fill-rule="evenodd" clip-rule="evenodd" d="M21.3125 13.0988C18.5511 13.0988 16.3125 15.3374 16.3125 18.0988C16.3125 20.8603 18.5511 23.0988 21.3125 23.0988C24.0739 23.0988 26.3125 20.8603 26.3125 18.0988C26.3125 15.3374 24.0739 13.0988 21.3125 13.0988ZM13.8125 18.0988C13.8125 13.9567 17.1704 10.5988 21.3125 10.5988C25.4546 10.5988 28.8125 13.9567 28.8125 18.0988C28.8125 22.241 25.4546 25.5988 21.3125 25.5988C17.1704 25.5988 13.8125 22.241 13.8125 18.0988Z" fill="white" stroke="white" stroke-width="0.5" stroke-miterlimit="10" stroke-linecap="round" stroke-linejoin="round"/>
</svg>
