<svg width="17" height="19" viewBox="0 0 17 19" fill="none" xmlns="http://www.w3.org/2000/svg">
<g clip-path="url(#clip0)">
<path fill-rule="evenodd" clip-rule="evenodd" d="M4.4132 1.65467C4.4132 1.37474 4.63933 1.14794 4.91844 1.14794C5.05711 1.14794 5.18169 1.20365 5.27409 1.29633C5.36582 1.38833 5.42205 1.51466 5.42205 1.65467V1.90718H5.42195V3.042C5.42195 3.3225 5.19525 3.54873 4.91834 3.54873C4.86604 3.54873 4.81561 3.54077 4.76817 3.52599C4.75808 3.52284 4.74812 3.51939 4.73831 3.51563C4.54819 3.44288 4.4132 3.25832 4.4132 3.04203V1.65467ZM3.26864 1.90718V1.65467C3.26864 0.740748 4.00721 0 4.91844 0C5.37494 0 5.78667 0.186994 6.08342 0.484614C6.38084 0.782915 6.56661 1.19775 6.56661 1.65467V1.90718H8.54991V1.65467C8.54991 0.741316 9.28791 0 10.1981 0C10.6537 0 11.0673 0.186313 11.3647 0.484614C11.6621 0.782915 11.8479 1.19775 11.8479 1.65467V1.90718H13.0709C14.2601 1.90718 15.2243 2.87424 15.2243 4.06694V5.36417V6.51205V10.6011C16.3048 11.4639 17 12.7957 17 14.2902C17 16.8916 14.8977 19 12.304 19C10.7939 19 9.45004 18.2854 8.59174 17.1764H2.15341C0.964211 17.1764 0 16.2094 0 15.0167V6.51205V5.36417V4.06694C0 2.87424 0.964211 1.90718 2.15341 1.90718H3.26864ZM10.7033 1.90718H10.7033V1.65467C10.7033 1.51466 10.6471 1.38833 10.5554 1.29633C10.4636 1.20433 10.3377 1.14794 10.1981 1.14794C9.92116 1.14794 9.69447 1.37417 9.69447 1.65467V3.04203C9.69447 3.18775 9.75565 3.31883 9.85327 3.41115C9.94355 3.49651 10.065 3.54873 10.198 3.54873C10.4771 3.54873 10.7033 3.32193 10.7033 3.042V1.90718ZM8.54992 3.05512C8.55343 3.50878 8.73901 3.91917 9.03694 4.21614C9.10625 4.28523 9.18165 4.34819 9.26226 4.40412C9.52809 4.58861 9.85053 4.6967 10.1981 4.6967C11.105 4.6967 11.8408 3.96301 11.8478 3.05512H13.0709C13.628 3.05512 14.0797 3.50823 14.0797 4.06694V5.36411H1.14456V4.06694C1.14456 3.50823 1.59633 3.05512 2.15341 3.05512H3.26859C3.27416 3.77461 3.73746 4.38468 4.38087 4.60689C4.54937 4.6651 4.73022 4.6967 4.91844 4.6967C5.82425 4.6967 6.55955 3.96246 6.56656 3.05512H8.54992ZM12.304 9.5787C12.9321 9.5787 13.5319 9.70265 14.0797 9.92745V6.51211H1.14456V15.0167C1.14456 15.5754 1.59633 16.0285 2.15341 16.0285H7.93684C7.72366 15.4907 7.6064 14.9041 7.6064 14.2902C7.6064 11.6889 9.70848 9.5787 12.304 9.5787ZM12.304 17.852C11.0807 17.852 10.0016 17.2331 9.36237 16.2882L9.35771 16.2813L9.35741 16.2808L9.35738 16.2808C9.30956 16.2099 9.26421 16.1372 9.22148 16.0628C8.9223 15.5418 8.75099 14.9373 8.75099 14.2902C8.75099 12.3227 10.3409 10.7267 12.304 10.7267C13.0568 10.7267 13.7527 10.961 14.3253 11.3603L14.335 11.367C15.2552 12.0131 15.8554 13.0819 15.8554 14.2902C15.8554 16.2576 14.2656 17.852 12.304 17.852ZM12.5591 12.0501C12.5591 11.7331 12.3029 11.4761 11.9869 11.4761C11.6708 11.4761 11.4146 11.7331 11.4146 12.0501V14.4083C11.4146 14.7768 11.5586 15.1316 11.8209 15.3946L12.8837 16.4606C13.1072 16.6847 13.4696 16.6847 13.693 16.4606C13.9165 16.2364 13.9165 15.873 13.693 15.6489L12.6302 14.5829C12.5851 14.5377 12.5591 14.476 12.5591 14.4083V12.0501Z" fill="#FEC80C"/>
</g>
<defs>
<clipPath id="clip0">
<rect width="17" height="19" fill="white"/>
</clipPath>
</defs>
</svg>
