<svg width="12" height="18" viewBox="0 0 12 18" fill="none" xmlns="http://www.w3.org/2000/svg">
<path d="M5.99123 17.0809C5.15244 15.9653 4.34469 14.9385 3.58959 13.8754C2.40553 12.2085 1.34355 10.4709 0.579023 8.56996C-0.051251 7.00293 -0.239731 5.43087 0.381768 3.81008C1.31814 1.36813 3.9245 -0.237317 6.56309 0.0287533C9.31798 0.306555 11.5235 2.37234 11.937 5.01977C12.1306 6.25924 11.8574 7.41389 11.3953 8.54379C10.4933 10.7494 9.2022 12.7376 7.80988 14.6656C7.24117 15.4533 6.64154 16.2192 5.99123 17.0809ZM8.55345 5.88257C8.56053 4.48312 7.42755 3.35412 6.01062 3.34871C4.598 3.34329 3.44014 4.46842 3.42979 5.85653C3.41945 7.24064 4.5718 8.38252 5.98416 8.38755C7.40908 8.39271 8.54638 7.28395 8.55345 5.88257Z" fill="#FFC908"/>
</svg>
