<svg width="10" height="15" viewBox="0 0 10 15" fill="none" xmlns="http://www.w3.org/2000/svg">
<path d="M4.99369 15C4.29469 14.0203 3.62156 13.1186 2.99231 12.185C2.0056 10.7212 1.12061 9.19526 0.483497 7.52593C-0.0417328 6.1498 -0.1988 4.76925 0.319117 3.34592C1.09943 1.20146 3.27141 -0.208406 5.47024 0.0252504C7.76599 0.269209 9.60397 2.08333 9.94856 4.40824C10.1099 5.49671 9.88219 6.5107 9.49711 7.50295C8.74539 9.4399 7.6695 11.1859 6.50924 12.879C6.03531 13.5707 5.53562 14.2433 4.99369 15ZM7.12888 5.16593C7.13478 3.93696 6.19063 2.94551 5.00984 2.94075C3.83266 2.936 2.86777 3.92406 2.85915 5.14306C2.85053 6.35855 3.81083 7.36133 4.98779 7.36574C6.17524 7.37027 7.12299 6.39659 7.12888 5.16593Z" fill="#303030"/>
</svg>
