<svg width="35" height="35" viewBox="0 0 35 35" fill="none" xmlns="http://www.w3.org/2000/svg">
<path d="M28.1565 14.6783C28.1327 17.1285 27.2422 19.9197 25.4285 22.4096C25.175 22.7577 25.1516 22.6632 25.4688 22.9799C28.4424 25.9561 31.418 28.9308 34.3906 31.9084C35.1483 32.6676 35.203 33.6993 34.5348 34.4232C33.8487 35.1665 32.7539 35.2013 32.0081 34.4754C31.1122 33.6034 30.2367 32.7094 29.3527 31.8249C27.2099 29.6805 25.0661 27.5376 22.9277 25.3883C22.7761 25.2362 22.6826 25.2217 22.5012 25.3555C19.5465 27.5322 16.2223 28.5191 12.5905 28.0587C6.99478 27.3492 3.084 24.3124 0.940186 19.0775C0.176526 17.214 -0.110841 15.2402 0.0378142 13.2315C0.359486 8.88956 2.26367 5.38338 5.73395 2.75126C7.47803 1.42824 9.44933 0.577551 11.6056 0.221066C16.0647 -0.516266 20.0277 0.596444 23.4393 3.56964C25.5305 5.39184 26.9111 7.67841 27.6539 10.3473C27.9905 11.558 28.1595 12.795 28.1565 14.6783ZM14.084 3.49357C8.25114 3.50003 3.50014 8.2631 3.50262 14.1021C3.50511 19.9078 8.28843 24.6708 14.1069 24.6604C19.9417 24.65 24.6788 19.8983 24.6679 14.0663C24.6569 8.2283 19.9109 3.4871 14.084 3.49357Z" fill="white"/>
</svg>
